<svg width="20" height="20" viewBox="0 0 20 20" fill="none" xmlns="http://www.w3.org/2000/svg">
<path d="M19.3333 9.9974C19.3333 10.7338 18.7363 11.3307 18 11.3307H11.3333V17.9974C11.3333 18.7338 10.7363 19.3307 9.99996 19.3307C9.26358 19.3307 8.66663 18.7338 8.66663 17.9974V11.3307H1.99996C1.26358 11.3307 0.666626 10.7338 0.666626 9.9974C0.666626 9.26102 1.26358 8.66406 1.99996 8.66406H8.66663V1.9974C8.66663 1.26102 9.26358 0.664062 9.99996 0.664062C10.7363 0.664062 11.3333 1.26102 11.3333 1.9974V8.66406H18C18.7363 8.66406 19.3333 9.26102 19.3333 9.9974Z" fill="#0C0CED"/>
</svg>
