<svg width="305" height="86" viewBox="0 0 305 86" fill="none" xmlns="http://www.w3.org/2000/svg">
<path d="M0.581444 22.3612C0.319454 14.8588 0.18846 11.1076 2.43393 8.68713C4.6794 6.26668 8.42987 6.11633 15.9308 5.81564L127.842 1.32948C135.414 1.02594 139.2 0.874168 141.639 3.13608C144.077 5.39799 144.209 9.18474 144.474 16.7582L146.127 64.1068C146.391 71.6802 146.524 75.467 144.249 77.8935C141.975 80.3199 138.187 80.4326 130.613 80.658L18.6607 83.9894C11.1571 84.2126 7.40523 84.3243 4.99639 82.0664C2.58755 79.8084 2.45655 76.0572 2.19456 68.5548L0.581444 22.3612Z" fill="#0C0CED"/>
<path d="M29.7365 58.5728L28.7384 29.9903L47.3831 29.3392L47.6042 35.6713L36.5229 36.0583L36.7133 41.511L46.2116 41.1793L46.4327 47.5114L36.9345 47.8431L37.2999 58.3087L29.7365 58.5728ZM55.3108 57.6798L54.3127 29.0972L61.8761 28.8331L62.6531 51.0835L73.4705 50.7058L73.6916 57.0379L55.3108 57.6798ZM80.6274 56.7957L79.6293 28.2131L87.1927 27.949L88.1908 56.5316L80.6274 56.7957ZM96.5396 56.24L95.5415 27.6574L106.007 27.292C108.088 27.2193 110.019 27.4454 111.798 27.9703C113.578 28.4952 115.019 29.4281 116.123 30.7691C117.255 32.109 117.864 33.9809 117.948 36.3848C118.029 38.7007 117.553 40.6252 116.52 42.1581C115.516 43.6608 114.147 44.7946 112.413 45.5596C110.707 46.3235 108.858 46.7403 106.865 46.8099L103.787 46.9174L104.103 55.9759L96.5396 56.24ZM103.578 40.9371L106.304 40.8419C107.799 40.7897 108.886 40.3995 109.565 39.6713C110.273 38.9129 110.604 37.9033 110.56 36.6428C110.515 35.3529 110.088 34.4579 109.278 33.9579C108.468 33.4579 107.33 33.2334 105.864 33.2846L103.314 33.3737L103.578 40.9371Z" fill="white"/>
<path d="M161.95 16.1079C162.083 12.2928 162.182 9.53231 162.539 7.43804C162.891 5.37239 163.472 4.1055 164.466 3.1839C165.459 2.2623 166.766 1.7774 168.852 1.58105C170.968 1.38197 173.728 1.49048 177.542 1.64338L289.454 6.12955C293.232 6.28103 295.966 6.39273 298.04 6.75618C300.086 7.11464 301.342 7.69554 302.257 8.68196C303.172 9.66837 303.658 10.9645 303.862 13.0315C304.069 15.1273 303.976 17.8616 303.844 21.641L302.225 67.9854C302.094 71.7321 301.998 74.4422 301.649 76.502C301.305 78.5333 300.737 79.7852 299.766 80.704C298.795 81.6228 297.514 82.1209 295.466 82.3526C293.39 82.5874 290.679 82.5347 286.931 82.4589L174.942 80.1936C171.092 80.1157 168.306 80.0572 166.19 79.7274C164.103 79.4021 162.82 78.8329 161.882 77.8422C160.945 76.8516 160.447 75.5396 160.238 73.4375C160.025 71.3065 160.12 68.5214 160.254 64.6731L161.95 16.1079Z" fill="white" stroke="#0C0CED" stroke-width="2"/>
<path d="M185.56 56.2736L186.337 34.0231L178.774 33.759L178.995 27.4269L201.685 28.2192L201.464 34.5514L193.901 34.2872L193.124 56.5377L185.56 56.2736ZM206.927 57.0197L207.925 28.4371L215.489 28.7012L215.117 39.3428L223.648 39.6407L224.02 28.9992L231.583 29.2633L230.585 57.8459L223.022 57.5817L223.418 46.2366L214.887 45.9387L214.491 57.2838L206.927 57.0197ZM235.294 58.0103L244.999 29.7318L254.145 30.0512L261.854 58.9378L253.851 58.6583L251.082 44.6492C250.778 43.259 250.479 41.7517 250.183 40.127C249.888 38.5024 249.589 36.9657 249.288 35.517L249.112 35.5108C248.769 36.937 248.393 38.4502 247.985 40.0503C247.577 41.6503 247.173 43.1331 246.773 44.4987L243.034 58.2806L235.294 58.0103ZM241.75 52.1601L241.955 46.3116L255.938 46.7999L255.734 52.6484L241.75 52.1601ZM268.51 59.1702L269.287 36.9198L261.723 36.6557L261.945 30.3235L284.635 31.1159L284.414 37.448L276.85 37.1839L276.073 59.4343L268.51 59.1702Z" fill="#2C2C33"/>
</svg>
