<svg width="16" height="20" viewBox="0 0 16 20" fill="none" xmlns="http://www.w3.org/2000/svg">
<path d="M13.126 7.35669C14.4251 8.2431 15.0747 8.6863 15.3022 9.24182C15.5013 9.72768 15.5013 10.2723 15.3022 10.7582C15.0747 11.3137 14.4251 11.7569 13.126 12.6433L5.50359 17.8443C3.88105 18.9514 3.06979 19.5049 2.39584 19.4698C1.80884 19.4391 1.26502 19.1519 0.908885 18.6842C0.500001 18.1473 0.500001 17.1652 0.500001 15.201L0.500002 4.79904C0.500002 2.83479 0.500002 1.85266 0.908886 1.31577C1.26502 0.848141 1.80884 0.560853 2.39584 0.53024C3.06979 0.495093 3.88105 1.04864 5.50359 2.15573L13.126 7.35669Z" fill="white"/>
</svg>
